<?xml version="1.0" standalone="no"?>
<!DOCTYPE svg PUBLIC "-//W3C//DTD SVG 20010904//EN"
 "http://www.w3.org/TR/2001/REC-SVG-20010904/DTD/svg10.dtd">
<svg version="1.0" xmlns="http://www.w3.org/2000/svg"
 width="512.000000pt" height="512.000000pt" viewBox="0 0 512.000000 512.000000"
 preserveAspectRatio="xMidYMid meet">

<g transform="translate(0.000000,512.000000) scale(0.100000,-0.100000)"
fill="#ffffff" stroke="none">
<path d="M590 5104 c-161 -43 -277 -147 -341 -309 l-24 -60 -3 -2135 c-2
-1542 0 -2152 8 -2195 35 -185 182 -342 367 -390 50 -13 317 -15 2058 -15
2271 0 2068 -8 2161 84 86 87 84 71 84 708 l0 549 -25 24 c-31 32 -69 32 -100
0 l-25 -24 0 -548 c0 -526 -1 -549 -20 -580 -41 -69 134 -63 -2092 -61 l-2013
3 -47 22 c-71 32 -141 103 -174 176 -23 51 -29 76 -29 137 0 65 4 84 33 142
36 73 86 123 161 160 38 19 62 23 141 23 105 0 144 -14 228 -82 24 -20 59 -39
78 -43 75 -17 154 28 175 100 6 22 9 143 7 323 l-3 289 -24 19 c-30 25 -62 24
-95 -2 l-26 -20 0 -280 0 -280 -56 40 c-81 58 -153 82 -260 88 -115 7 -203
-17 -298 -81 l-66 -44 2 1936 3 1937 26 55 c33 70 99 136 169 169 46 22 69 26
140 26 71 -1 94 -5 141 -28 69 -33 132 -99 167 -175 l27 -57 3 -1522 2 -1522
27 -20 c32 -26 64 -27 94 -2 23 18 24 26 27 155 l4 136 603 0 604 0 3 -560 3
-559 23 -23 23 -23 884 0 884 0 23 23 23 23 0 1349 0 1349 -23 23 -23 23
-1514 3 -1515 2 0 145 0 145 374 0 c235 0 385 4 402 10 55 21 71 78 34 118
-21 22 -22 22 -415 22 l-394 0 -3 363 c-4 344 -5 365 -26 421 -92 246 -342
384 -582 320z m1820 -2154 l0 -460 -49 0 c-64 0 -101 -28 -101 -76 0 -62 24
-74 146 -74 58 0 114 5 124 10 30 16 40 74 40 238 l0 152 244 0 245 0 20 26
c20 26 21 38 21 335 l0 309 305 0 305 0 0 -460 0 -460 -49 0 c-64 0 -101 -28
-101 -76 0 -62 24 -74 149 -74 106 0 110 1 130 26 18 22 21 41 21 111 l0 84
133 -3 132 -3 3 -237 2 -238 -1229 0 -1229 0 -12 53 c-44 191 -216 363 -407
407 l-53 12 0 429 0 429 605 0 605 0 0 -460z m538 198 l2 -258 -190 0 -190 0
0 260 0 260 188 -2 187 -3 3 -257z m1180 200 l3 -58 -136 0 -135 0 0 60 0 61
133 -3 132 -3 3 -57z m0 -280 l3 -68 -136 0 -135 0 0 70 0 71 133 -3 132 -3 3
-67z m0 -290 l3 -68 -136 0 -135 0 0 70 0 71 133 -3 132 -3 3 -67z m-2822
-419 c96 -45 175 -143 209 -256 l6 -23 -160 0 -161 0 0 161 0 160 23 -6 c12
-4 49 -20 83 -36z m1574 -451 c0 -40 -48 -127 -99 -181 -49 -52 -126 -99 -183
-113 l-28 -6 0 161 0 161 155 0 c154 0 155 0 155 -22z m1245 -488 l0 -505
-777 -3 -778 -2 0 274 0 274 44 6 c125 19 293 147 359 274 33 64 48 104 61
165 l6 27 543 -2 542 -3 0 -505z"/>
<path d="M2230 3978 c-37 -40 -21 -97 34 -118 18 -7 418 -10 1217 -10 l1189 0
38 -34 37 -34 5 -1087 5 -1087 24 -19 c32 -26 67 -24 97 6 l24 24 -2 1093 -3
1093 -29 53 c-33 59 -88 108 -144 128 -30 11 -276 13 -1254 14 l-1217 0 -21
-22z"/>
<path d="M660 582 c-24 -19 -38 -91 -26 -137 15 -60 85 -86 126 -45 16 16 20
33 20 90 0 57 -4 74 -20 90 -25 25 -71 26 -100 2z"/>
<path d="M1045 575 c-21 -20 -25 -34 -25 -85 0 -51 4 -65 25 -85 31 -32 74
-33 103 -2 18 19 22 35 22 88 0 56 -4 69 -23 87 -31 29 -72 28 -102 -3z"/>
<path d="M1432 577 c-18 -19 -22 -35 -22 -88 0 -56 4 -69 23 -87 31 -29 72
-28 102 3 21 20 25 34 25 85 0 51 -4 65 -25 85 -31 32 -74 33 -103 2z"/>
<path d="M1820 580 c-16 -16 -20 -33 -20 -90 0 -58 3 -72 22 -90 27 -25 69
-26 99 -1 21 17 24 28 24 91 0 63 -3 74 -24 91 -30 25 -76 24 -101 -1z"/>
<path d="M2210 582 c-24 -19 -38 -91 -26 -137 15 -60 85 -86 126 -45 16 16 20
33 20 90 0 57 -4 74 -20 90 -25 25 -71 26 -100 2z"/>
<path d="M2595 575 c-21 -20 -25 -34 -25 -85 0 -51 4 -65 25 -85 31 -32 74
-33 103 -2 18 19 22 35 22 88 0 56 -4 69 -23 87 -31 29 -72 28 -102 -3z"/>
<path d="M2982 577 c-18 -19 -22 -35 -22 -88 0 -56 4 -69 23 -87 31 -29 72
-28 102 3 21 20 25 34 25 85 0 51 -4 65 -25 85 -31 32 -74 33 -103 2z"/>
<path d="M3370 580 c-16 -16 -20 -33 -20 -90 0 -58 3 -72 22 -90 27 -25 69
-26 99 -1 21 17 24 28 24 91 0 63 -3 74 -24 91 -30 25 -76 24 -101 -1z"/>
<path d="M3759 581 c-21 -17 -24 -28 -24 -91 0 -63 3 -74 24 -91 30 -25 76
-24 101 1 16 16 20 33 20 90 0 57 -4 74 -20 90 -25 25 -71 26 -101 1z"/>
<path d="M4145 575 c-21 -20 -25 -34 -25 -85 0 -51 4 -65 25 -85 31 -32 74
-33 103 -2 18 19 22 35 22 88 0 56 -4 69 -23 87 -31 29 -72 28 -102 -3z"/>
</g>
</svg>
