<?xml version="1.0" standalone="no"?>
<!DOCTYPE svg PUBLIC "-//W3C//DTD SVG 20010904//EN"
 "http://www.w3.org/TR/2001/REC-SVG-20010904/DTD/svg10.dtd">
<svg version="1.0" xmlns="http://www.w3.org/2000/svg"
 width="512.000000pt" height="512.000000pt" viewBox="0 0 512.000000 512.000000"
 preserveAspectRatio="xMidYMid meet">

<g transform="translate(0.000000,512.000000) scale(0.100000,-0.100000)"
fill="#ffffff" stroke="none">
<path d="M1530 5105 c-543 -89 -953 -526 -1011 -1075 -16 -158 -7 -537 16
-620 42 -154 98 -238 190 -286 46 -24 55 -33 55 -56 0 -38 25 -153 48 -218 57
-163 174 -328 307 -430 53 -41 55 -44 55 -89 l0 -47 -60 -28 c-33 -16 -81 -50
-108 -76 l-48 -47 -99 -6 c-224 -14 -431 -106 -599 -266 -118 -114 -192 -235
-243 -398 l-27 -88 -4 -605 c-2 -333 0 -620 3 -638 7 -40 59 -101 102 -118 27
-12 306 -14 1600 -14 1508 0 1570 1 1609 19 69 32 88 70 92 184 3 69 7 97 15
93 7 -2 36 -12 64 -22 l53 -18 32 -84 c56 -145 98 -172 268 -172 170 0 212 27
268 173 28 72 37 86 60 92 15 4 63 22 108 41 l80 35 83 -36 c90 -38 153 -45
199 -21 32 17 185 171 201 203 21 41 12 105 -24 193 l-36 84 35 80 c19 45 37
93 41 108 6 23 20 32 92 60 146 56 173 98 173 268 0 172 -22 208 -163 264 -81
32 -96 41 -102 64 -4 15 -22 63 -41 108 l-35 80 36 83 c38 90 45 153 21 199
-17 32 -171 185 -203 201 -41 21 -105 12 -193 -24 l-84 -36 -80 35 c-45 19
-93 37 -108 41 -23 6 -32 20 -60 92 -56 146 -98 173 -268 173 -170 0 -212 -27
-268 -173 -28 -72 -37 -86 -60 -92 -15 -4 -63 -22 -108 -41 l-80 -35 -83 36
c-90 38 -153 45 -199 21 -28 -15 -196 -182 -203 -203 -3 -8 -21 -6 -64 9 -83
28 -195 48 -267 48 -58 0 -62 2 -115 50 -30 28 -81 62 -114 78 l-59 27 0 46
c0 43 3 48 39 73 64 44 176 166 230 251 75 117 119 241 146 407 5 31 12 40 50
58 64 31 128 107 159 188 52 136 58 191 53 502 -5 301 -10 342 -62 496 -116
346 -415 640 -765 753 -168 54 -382 73 -540 46z m410 -186 c428 -109 744 -475
785 -909 l7 -75 -52 1 -52 0 -19 53 c-54 154 -181 284 -367 375 -133 66 -237
82 -302 48 -19 -10 -69 -37 -111 -60 -153 -84 -470 -169 -719 -193 -154 -15
-210 -26 -246 -51 -40 -27 -82 -90 -90 -135 -6 -30 -10 -33 -40 -33 -49 0 -49
1 -46 50 16 240 116 462 286 638 154 159 349 266 551 301 33 6 71 13 85 15 57
10 248 -4 330 -25z m236 -714 c73 -35 111 -62 163 -113 90 -89 120 -154 131
-281 8 -86 11 -98 35 -118 14 -13 39 -23 54 -23 35 0 77 32 85 64 12 47 70 40
82 -10 4 -14 4 -76 2 -137 -4 -87 -11 -129 -31 -186 -30 -86 -45 -103 -124
-145 -74 -40 -98 -76 -107 -163 -42 -414 -398 -726 -801 -700 -114 8 -189 28
-291 78 -234 115 -391 338 -424 605 -14 114 -31 140 -117 184 -61 31 -71 41
-95 90 -34 72 -58 189 -58 289 0 69 3 83 23 107 29 33 49 28 72 -19 29 -61 90
-74 136 -28 29 29 29 31 29 140 0 102 2 111 22 125 13 9 43 16 73 16 69 0 286
33 429 65 197 44 447 140 521 199 30 25 83 14 191 -39z m1786 -1914 c21 -52
45 -102 54 -112 9 -10 46 -28 83 -40 36 -12 101 -39 145 -60 43 -22 89 -39
103 -39 13 0 67 18 120 41 l96 41 59 -60 60 -59 -41 -96 c-23 -53 -41 -107
-41 -120 0 -14 17 -60 39 -103 21 -44 48 -109 60 -145 12 -37 30 -74 40 -83
10 -9 60 -33 112 -54 l94 -38 0 -84 0 -84 -94 -38 c-52 -21 -102 -45 -112 -54
-10 -9 -28 -46 -40 -83 -12 -36 -39 -101 -60 -144 -22 -43 -39 -89 -39 -103 0
-14 18 -68 41 -121 l41 -96 -59 -59 -60 -59 -95 40 c-53 23 -107 41 -121 41
-13 0 -60 -17 -103 -39 -44 -21 -109 -48 -145 -60 -37 -12 -74 -30 -83 -40 -9
-10 -33 -60 -54 -112 l-38 -94 -84 0 -84 0 -38 94 c-21 52 -45 102 -54 112 -9
10 -46 28 -83 40 -36 12 -101 39 -144 60 -43 22 -89 39 -103 39 -14 0 -68 -18
-121 -41 l-96 -41 -59 60 -60 59 41 96 c23 53 41 107 41 120 0 14 -17 60 -39
103 -21 44 -48 109 -60 145 -12 37 -30 74 -40 83 -10 9 -60 33 -112 54 l-94
38 0 84 0 84 94 38 c52 21 102 45 112 54 10 9 28 46 40 83 12 36 39 101 60
145 22 43 39 89 39 103 0 13 -18 67 -41 120 l-41 96 60 59 59 60 96 -41 c53
-23 107 -41 120 -41 14 0 60 17 103 39 44 21 109 48 145 60 79 26 91 37 125
122 14 35 32 79 40 97 l13 33 82 -3 83 -3 38 -94z m-2482 -44 c62 -17 103 -21
230 -21 139 1 164 3 243 27 48 15 89 27 92 27 3 0 5 -11 5 -24 0 -30 -74 -114
-137 -154 -27 -17 -83 -42 -126 -57 -77 -26 -79 -26 -135 -10 -140 41 -282
150 -282 215 0 27 3 31 18 25 9 -4 51 -16 92 -28z m-95 -274 c25 -15 45 -30
45 -33 -1 -3 -24 -21 -52 -40 -29 -19 -71 -58 -94 -87 l-43 -52 -40 45 c-40
46 -73 118 -86 187 -6 32 -4 39 26 66 18 17 46 37 63 45 l30 15 53 -59 c29
-32 73 -71 98 -87z m879 95 c36 -29 38 -34 33 -74 -6 -53 -55 -158 -96 -204
-30 -34 -31 -34 -43 -15 -22 37 -96 110 -137 135 -22 14 -41 27 -41 30 0 3 17
15 38 26 20 12 64 51 97 86 68 72 79 74 149 16z m-1319 -190 c43 -538 159
-942 347 -1215 61 -88 183 -206 266 -257 l62 -39 0 -98 0 -99 -725 0 -725 0 0
550 c0 594 3 633 55 763 63 156 201 313 340 384 121 62 219 90 321 92 l52 1 7
-82z m1756 46 c110 -34 175 -70 189 -103 9 -23 6 -37 -19 -94 -17 -37 -36 -85
-42 -107 -11 -38 -16 -41 -97 -72 -145 -56 -172 -98 -172 -268 0 -170 27 -212
173 -268 72 -28 86 -37 92 -60 4 -15 22 -63 41 -108 l35 -80 -36 -83 c-38 -90
-45 -153 -21 -199 17 -32 171 -185 203 -201 31 -16 104 -14 146 4 20 8 39 15
42 15 3 0 5 -29 5 -65 l0 -65 -725 0 -725 0 0 99 0 99 48 28 c119 69 228 178
317 318 161 253 280 694 311 1145 l7 104 72 -6 c40 -4 110 -18 156 -33z m-885
-105 c106 -34 104 -29 53 -160 l-45 -114 -116 -3 -116 -3 -46 117 c-26 64 -46
118 -44 119 17 14 100 48 146 59 62 15 77 14 168 -15z m-402 -292 l35 -88 -32
-295 c-17 -162 -34 -294 -38 -294 -11 0 -98 205 -134 315 -37 112 -81 299 -91
389 l-7 58 50 -36 c77 -55 141 -45 167 28 3 10 8 17 10 15 2 -2 20 -44 40 -92z
m675 24 c34 -19 76 -12 117 17 67 48 65 48 58 0 -16 -111 -59 -293 -94 -398
-39 -118 -130 -334 -137 -326 -3 2 -19 137 -36 298 l-32 295 23 59 c13 32 31
75 39 94 l14 35 14 -32 c7 -17 22 -36 34 -42z m-289 -183 c0 -2 18 -167 40
-368 l40 -365 -22 -18 c-39 -31 -141 -97 -150 -97 -15 0 -141 85 -159 106 -14
17 -12 49 23 369 21 193 40 356 43 363 3 8 32 12 95 12 49 0 90 -1 90 -2z"/>
<path d="M3673 1941 c-251 -68 -431 -251 -495 -502 -16 -67 -20 -103 -16 -188
13 -286 185 -518 457 -615 80 -29 96 -31 221 -31 125 0 141 2 221 31 205 73
353 222 426 429 25 72 28 93 28 215 0 126 -2 141 -31 221 -73 206 -224 355
-429 425 -109 37 -275 43 -382 15z m290 -166 c275 -71 442 -350 372 -620 -100
-381 -580 -514 -855 -236 -277 280 -149 753 231 855 71 19 181 20 252 1z"/>
<path d="M3739 1605 c-294 -94 -320 -502 -40 -634 81 -38 201 -38 282 0 72 34
134 96 168 168 22 47 26 70 26 141 0 102 -28 173 -95 240 -84 84 -230 121
-341 85z m181 -178 c51 -27 90 -90 90 -147 0 -87 -83 -170 -170 -170 -87 0
-170 83 -170 170 0 87 83 170 170 170 20 0 56 -10 80 -23z"/>
<path d="M3329 4597 c-103 -29 -181 -96 -228 -197 l-26 -55 0 -675 0 -675 27
-57 c34 -73 103 -142 176 -176 l57 -27 765 0 765 0 56 28 c67 32 142 109 172
175 22 47 22 49 22 732 l0 685 -22 48 c-33 70 -103 140 -176 173 -60 28 -68
29 -212 29 -137 0 -153 -2 -185 -22 -20 -12 -46 -40 -58 -61 -21 -37 -22 -52
-22 -231 l0 -191 -345 0 -345 0 0 191 c0 218 -6 243 -73 287 -38 25 -48 27
-171 29 -82 2 -148 -2 -177 -10z m251 -672 l0 -515 -115 0 c-91 0 -126 -4
-167 -20 -29 -11 -54 -20 -55 -20 -9 0 -1 911 8 943 14 50 55 95 104 112 23 8
79 14 133 15 l92 0 0 -515z m1257 500 c50 -21 72 -42 94 -90 17 -37 19 -75 19
-504 0 -437 -1 -463 -17 -456 -69 29 -98 34 -205 35 l-118 0 0 515 0 515 95 0
c63 0 108 -5 132 -15z m-397 -785 c3 -190 9 -292 17 -305 20 -36 69 -75 104
-85 18 -6 86 -10 149 -10 138 0 179 -17 217 -89 42 -79 24 -156 -50 -215 l-39
-31 -714 -3 c-483 -2 -728 1 -755 8 -80 22 -138 115 -123 196 7 37 51 96 88
117 12 7 79 14 162 17 131 5 143 7 181 32 70 46 73 60 73 370 0 151 3 278 7
281 4 4 158 6 342 5 l336 -3 5 -285z"/>
</g>
</svg>
